#!OML:ASF E:\pregnant2\Project 1\Capture day 1\Session 1\pregnant2.ASF
:FULLY-SPECIFIED
:DEGREES
960
root 12.8838 16.715 36.5903 20.1369 78.1238 -13.6647
lowerback -20.1807 1.53272 2.42136
upperback -14.9056 2.8602 0.601228
thorax -4.92526 1.82599 -0.324391
lowerneck -2.87655 11.9925 18.3417
upperneck 39.7222 25.7636 -13.9051
head 21.4816 13.0786 -4.50677
rclavicle 3.72473e-014 -2.0276e-014
rhumerus -37.5424 13.4729 -82.94
rradius 37.9122
rwrist 10.0811
rhand -15.3402 -15.3174
rfingers 7.12502
rthumb 10.8367 314.982
lclavicle 3.72473e-014 -2.0276e-014
lhumerus -50.5125 -4.42277 87.5051
lradius 33.0454
lwrist -0.906181
lhand -9.90615 28.367
lfingers 7.12502
lthumb 16.074 57.7203
rfemur -33.7563 2.86998 25.7182
rtibia 27.5299
rfoot -23.7753 -27.2509
rtoes 1.17639
lfemur -59.3005 1.44952 -26.8109
ltibia 25.4422
lfoot 2.06745 29.8234
ltoes 13.3632
961
root 12.9684 16.7207 36.5823 21.4924 78.4676 -12.31
lowerback -20.1723 1.38756 1.99949
upperback -14.9268 2.73974 0.59305
thorax -4.96768 1.80054 -0.117125
lowerneck -2.85024 11.9719 18.2771
upperneck 39.7108 25.8075 -13.9805
head 21.4897 13.0906 -4.5239
rclavicle -1.89591e-014 3.97569e-015
rhumerus -37.9018 13.6245 -83.1325
rradius 38.5531
rwrist 10.3223
rhand -14.9905 -14.9119
rfingers 7.12502
rthumb 11.1739 315.406
lclavicle -1.89591e-014 3.97569e-015
lhumerus -50.5764 -3.96538 87.2396
lradius 32.7916
lwrist -1.59509
lhand -9.67915 28.1313
lfingers 7.12502
lthumb 16.2926 57.4668
rfemur -33.6389 2.66376 25.3502
rtibia 27.8833
rfoot -23.8533 -27.4344
rtoes 0.808464
lfemur -58.8669 0.518509 -26.5168
ltibia 25.1765
lfoot 2.51872 30.2254
ltoes 14.1175
962
root 13.0526 16.724 36.5737 23.0981 78.8476 -10.7034
lowerback -20.1463 1.22388 1.54994
upperback -14.9476 2.59898 0.576105
thorax -5.0182 1.76661 0.0927766
lowerneck -2.83475 11.9517 18.1972
upperneck 39.693 25.8515 -14.0591
head 21.493 13.099 -4.53905
rclavicle 1.52816e-014 2.90226e-014
rhumerus -38.3006 13.7483 -83.3237
rradius 39.2115
rwrist 10.4928
rhand -14.7178 -14.5711
rfingers 7.12502
rthumb 11.4369 315.761
lclavicle 1.52816e-014 2.90226e-014
lhumerus -50.6132 -3.48653 86.9673
lradius 32.5189
lwrist -2.26295
lhand -9.49209 27.8862
lfingers 7.12502
lthumb 16.4727 57.2069
rfemur -33.5883 2.47414 24.9318
rtibia 28.3879
rfoot -23.9772 -27.6371
rtoes 0.477699
lfemur -58.4569 -0.350912 -26.3939
ltibia 24.9957
lfoot 2.58318 30.5334
ltoes 14.4164
963
root 13.1363 16.7248 36.5644 24.8224 79.2727 -8.98178
lowerback -20.1063 1.04976 1.1082
upperback -14.9658 2.44324 0.562782
thorax -5.07155 1.72487 0.299845
lowerneck -2.82966 11.9324 18.0851
upperneck 39.6637 25.8965 -14.1412
head 21.483 13.1015 -4.54911
rclavicle -1.24986e-014 -1.51076e-014
rhumerus -38.738 13.854 -83.5046
rradius 39.8835
rwrist 10.5763
rhand -14.5222 -14.3021
rfingers 7.12502
rthumb 11.6256 316.04
lclavicle -1.24986e-014 -1.51076e-014
lhumerus -50.64 -3.02934 86.7166
lradius 32.2599
lwrist -2.85716
lhand -9.34728 27.6642
lfingers 7.12502
lthumb 16.6121 56.9732
rfemur -33.5955 2.31325 24.4998
rtibia 29.0272
rfoot -24.1532 -27.8587
rtoes 0.221203
lfemur -58.1033 -1.05105 -26.5032
ltibia 24.9291
lfoot 2.40614 30.5964
ltoes 14.3693
964
root 13.2195 16.7228 36.5544 26.5163 79.753 -7.29639
lowerback -20.0529 0.870008 0.704057
upperback -14.982 2.27482 0.566389
thorax -5.12793 1.67496 0.502043
lowerneck -2.82456 11.912 17.946
upperneck 39.62 25.9441 -14.2344
head 21.4588 13.1003 -4.55923
rclavicle -2.18663e-015 3.53837e-014
rhumerus -39.2131 13.9384 -83.6664
rradius 40.5589
rwrist 10.5841
rhand -14.4152 -14.119
rfingers 7.12502
rthumb 11.7288 316.229
lclavicle -2.18663e-015 3.53837e-014
lhumerus -50.6614 -2.58019 86.4812
lradius 32.0185
lwrist -3.3843
lhand -9.23997 27.4724
lfingers 7.12502
lthumb 16.7154 56.7728
rfemur -33.6432 2.15929 24.1033
rtibia 29.7676
rfoot -24.3575 -28.0719
rtoes 0.0351671
lfemur -57.8227 -1.52798 -26.8307
ltibia 24.9847
lfoot 2.07305 30.3363
ltoes 14.1007
965
root 13.302 16.7185 36.5434 28.0261 80.293 -5.80147
lowerback -19.9889 0.695062 0.375859
upperback -14.9949 2.10162 0.590957
thorax -5.18315 1.61791 0.68359
lowerneck -2.82014 11.8888 17.7886
upperneck 39.5631 25.9931 -14.3425
head 21.4251 13.0961 -4.57297
rclavicle -2.51214e-014 7.95139e-016
rhumerus -39.7185 13.9989 -83.8074
rradius 41.2252
rwrist 10.5275
rhand -14.3819 -14.0077
rfingers 7.12502
rthumb 11.7609 316.342
lclavicle -2.51214e-014 7.95139e-016
lhumerus -50.6756 -2.1455 86.2622
lradius 31.8026
lwrist -3.84008
lhand -9.16627 27.3292
lfingers 7.12502
lthumb 16.7864 56.6236
rfemur -33.7132 2.0034 23.7831
rtibia 30.571
rfoot -24.5488 -28.2709
rtoes -0.120695
lfemur -57.6134 -1.77276 -27.3233
ltibia 25.1467
lfoot 1.66057 29.725
ltoes 13.6424
966
root 13.3841 16.7131 36.5312 29.2381 80.8911 -4.61238
lowerback -19.9221 0.531676 0.136944
upperback -15.0037 1.93078 0.640095
thorax -5.23248 1.55643 0.842195
lowerneck -2.79783 11.8667 17.6345
upperneck 39.4792 26.0576 -14.4857
head 21.3835 13.0979 -4.60103
rclavicle 3.04638e-014 3.77691e-015
rhumerus -40.2566 14.0558 -83.9282
rradius 41.8864
rwrist 10.3828
rhand -14.3934 -13.9502
rfingers 7.12502
rthumb 11.7498 316.399
lclavicle 3.04638e-014 3.77691e-015
lhumerus -50.6994 -1.76844 86.0671
lradius 31.6377
lwrist -4.17263
lhand -9.07478 27.1954
lfingers 7.12502
lthumb 16.8745 56.4823
rfemur -33.7911 1.84966 23.5569
rtibia 31.403
rfoot -24.7163 -28.4391
rtoes -0.201868
lfemur -57.4591 -1.82777 -27.9006
ltibia 25.3796
lfoot 1.21199 28.8368
ltoes 13.0908
967
root 13.466 16.7081 36.5175 30.0924 81.5347 -3.78566
lowerback -19.8585 0.386814 -0.0023439
upperback -15.0056 1.76958 0.710104
thorax -5.26958 1.49283 0.969358
lowerneck -2.76327 11.8456 17.479
upperneck 39.3752 26.132 -14.652
head 21.3338 13.1031 -4.63782
rclavicle 9.24349e-015 4.96962e-015
rhumerus -40.8092 14.0844 -84.0228
rradius 42.5211
rwrist 10.1979
rhand -14.4424 -13.9306
rfingers 7.12502
rthumb 11.7025 316.416
lclavicle 9.24349e-015 4.96962e-015
lhumerus -50.695 -1.36385 85.8631
lradius 31.4825
lwrist -4.47759
lhand -8.99363 27.0881
lfingers 7.12502
lthumb 16.9526 56.3683
rfemur -33.8708 1.6487 23.4438
rtibia 32.238
rfoot -24.7643 -28.5648
rtoes -0.36655
lfemur -57.3291 -1.77013 -28.4745
ltibia 25.6405
lfoot 0.738046 27.8235
ltoes 12.4963
968
root 13.5479 16.7049 36.5022 30.5427 82.2053 -3.36142
lowerback -19.8017 0.263006 -0.0575624
upperback -14.9987 1.62356 0.801582
thorax -5.29159 1.43102 1.07527
lowerneck -2.72454 11.8191 17.3232
upperneck 39.2702 26.2081 -14.8333
head 21.2889 13.1096 -4.68192
rclavicle -2.3556e-014 -1.47101e-014
rhumerus -41.3719 14.0984 -84.0885
rradius 43.1235
rwrist 9.96897
rhand -14.5001 -13.9293
rfingers 7.12502
rthumb 11.6469 316.414
lclavicle -2.3556e-014 -1.47101e-014
lhumerus -50.673 -0.945404 85.6386
lradius 31.3547
lwrist -4.73746
lhand -8.88048 26.9936
lfingers 7.12502
lthumb 17.0615 56.2644
rfemur -33.9438 1.3855 23.438
rtibia 33.0617
rfoot -24.6506 -28.6358
rtoes -0.655993
lfemur -57.1876 -1.69305 -28.9574
ltibia 25.8868
lfoot 0.256313 26.8293
ltoes 11.9171
969
root 13.6298 16.7048 36.4852 30.5991 82.8844 -3.32366
lowerback -19.7498 0.161359 -0.0429409
upperback -14.9828 1.49596 0.90658
thorax -5.29963 1.37316 1.1597
lowerneck -2.68361 11.788 17.1655
upperneck 39.17 26.2832 -15.0193
head 21.2488 13.1163 -4.72862
rclavicle -3.21286e-014 1.07344e-014
rhumerus -41.9335 14.0924 -84.1262
rradius 43.6817
rwrist 9.71409
rhand -14.5539 -13.9302
rfingers 7.12502
rthumb 11.5949 316.411
lclavicle -3.21286e-014 1.07344e-014
lhumerus -50.64 -0.535698 85.4381
lradius 31.2642
lwrist -4.93935
lhand -8.79086 26.9702
lfingers 7.12502
lthumb 17.1478 56.2336
rfemur -34.0145 1.0483 23.5179
rtibia 33.8766
rfoot -24.3593 -28.6383
rtoes -1.05656
lfemur -57.0093 -1.63691 -29.3329
ltibia 26.0857
lfoot -0.207419 25.9216
ltoes 11.3881
970
root 13.7118 16.7077 36.4663 30.3415 83.5475 -3.58679
lowerback -19.7 0.0785106 0.00737121
upperback -14.9588 1.3871 1.02119
thorax -5.29715 1.32194 1.23746
lowerneck -2.65068 11.7475 16.9935
upperneck 39.0954 26.3465 -15.1899
head 21.2186 13.1181 -4.76889
rclavicle 6.80837e-015 9.93923e-015
rhumerus -42.488 14.0757 -84.1349
rradius 44.1856
rwrist 9.44148
rhand -14.5881 -13.9241
rfingers 7.12502
rthumb 11.562 316.415
lclavicle 6.80837e-015 9.93923e-015
lhumerus -50.6076 -0.129607 85.2547
lradius 31.2193
lwrist -5.10722
lhand -8.72145 27.0049
lfingers 7.12502
lthumb 17.2146 56.2624
rfemur -34.092 0.628259 23.6528
rtibia 34.6976
rfoot -23.8694 -28.571
rtoes -1.61477
lfemur -56.777 -1.62456 -29.6082
ltibia 26.2212
lfoot -0.64195 25.1429
ltoes 10.909
